<svg width="165" height="21" viewBox="0 0 165 21" fill="none" xmlns="http://www.w3.org/2000/svg">
<g clip-path="url(#clip0_5561_3269)">
<path d="M65.9679 0.128906C65.9679 0.128906 47.0873 0.128906 47.0283 0.128906C40.3739 0.128906 39.4067 5.50649 39.233 6.06904C39.0109 6.77992 36.1725 17.5235 35.2759 20.9264C39.113 20.9264 46.7799 20.941 46.7799 20.941C46.7799 20.941 48.9964 12.5276 49.0175 12.5571C49.2648 12.8052 53.7903 18.3311 55.21 19.8874C56.3571 21.1283 57.1401 20.9348 61.5498 20.941C64.3745 20.941 68.3865 20.941 68.5212 20.941L62.094 13.3594H69.2062C69.682 11.3288 70.3471 8.91991 70.9333 6.58335C71.8142 3.01534 68.9043 0.221392 65.9679 0.128906ZM58.6167 9.65491H49.7931L51.1929 4.65047H59.9501L58.6167 9.65491Z" fill="#141517"/>
<path d="M34.935 4.62747L36.1516 0.227693L11.3132 0.221436C6.08565 0.483325 4.58173 3.65164 3.79449 6.7705C3.51146 7.89574 3.22735 8.95673 2.98846 9.87045C2.55788 11.5086 2.3642 12.1354 2.3642 12.1354L21.527 12.1197L20.3556 16.5793H1.19296L0.000488281 20.96C0.000488281 20.96 22.5921 20.96 23.8855 20.96C28.6878 20.96 31.0863 18.9537 32.2556 14.6045C33.0575 11.5308 33.9194 8.49934 33.9194 8.49934H15.2851L16.3112 4.62747H34.935Z" fill="#141517"/>
<path d="M83.6299 0.171922C81.8007 0.171922 77.8793 -0.152997 75.8703 5.98599C74.9621 9.28785 71.8848 20.9515 71.8848 20.9515C71.8848 20.9515 74.9737 20.9599 77.4911 20.9599C80.0369 20.9599 82.7204 21.044 83.5709 19.3743C84.3328 17.9021 85.2883 13.9292 85.2883 13.9292H94.474L92.5628 20.9999H104.104C109.414 1.1183 109.271 1.60942 109.667 0.171922C103.222 0.171922 90.4117 0.171922 83.6299 0.171922ZM95.274 9.72006L86.4924 9.73577L87.8437 4.64953H96.5978L95.274 9.72006Z" fill="#141517"/>
<path d="M146.001 20.9516L150.154 5.05021H143.24L139.051 20.96H127.891L132.065 5.05021H125.1L120.894 20.9727H109.376L114.914 0.0363024C114.914 0.0363024 152.175 -0.0456526 156.084 0.0363024C158.502 0.088955 161.986 2.49388 160.773 7.2343C159.338 12.8358 158.374 17.5446 157.481 20.9516C153.562 20.9516 152.24 20.9516 146.001 20.9516Z" fill="#141517"/>
<path d="M160.836 18.5099C160.836 17.4395 161.651 16.6193 162.693 16.6193C163.728 16.6193 164.541 17.4395 164.541 18.5099C164.541 19.6141 163.728 20.4175 162.693 20.4175C161.651 20.4175 160.836 19.6141 160.836 18.5099ZM162.693 20.8044C163.941 20.8044 165 19.8328 165 18.5099C165 17.2124 163.941 16.2366 162.693 16.2366C161.438 16.2366 160.377 17.2124 160.377 18.5099C160.377 19.8328 161.438 20.8044 162.693 20.8044ZM162.213 18.6929H162.672L163.366 19.8328H163.812L163.067 18.6761C163.45 18.632 163.745 18.4217 163.745 17.9506C163.745 17.4395 163.44 17.2124 162.817 17.2124H161.817V19.8328H162.213V18.6929ZM162.213 18.3585V17.5446H162.76C163.03 17.5446 163.331 17.5993 163.331 17.9337C163.331 18.3418 163.021 18.3585 162.693 18.3585H162.213Z" fill="#141517"/>
</g>
<defs>
<clipPath id="clip0_5561_3269">
<rect width="165" height="21" fill="white"/>
</clipPath>
</defs>
</svg>
