<svg width="165" height="41" viewBox="0 0 165 41" fill="none" xmlns="http://www.w3.org/2000/svg">
<g clip-path="url(#clip0_5561_3278)">
<path d="M159.867 0.0233154C161.793 0.0233154 164.999 1.4607 164.999 6.57177V15.97C164.999 21.4937 161.011 22.3823 159.817 22.3823H149.137C147.276 22.3823 143.982 21.0371 143.982 15.9026V6.29524C143.982 3.03549 145.819 0.0453222 149.204 0.0233154H159.867ZM152.471 3.92401C151.835 3.93555 151.227 4.19269 150.773 4.64245C150.318 5.09221 150.052 5.70038 150.029 6.342V15.97C150.024 16.2952 150.083 16.6182 150.202 16.9205C150.321 17.2228 150.498 17.4984 150.723 17.7316C150.948 17.9649 151.216 18.1512 151.512 18.2798C151.809 18.4085 152.127 18.4771 152.449 18.4816H156.505C157.14 18.4603 157.744 18.1963 158.194 17.743C158.643 17.2897 158.906 16.681 158.927 16.0401V6.36408C158.902 5.72848 158.643 5.1252 158.199 4.67326C157.755 4.22132 157.159 3.9535 156.53 3.92267L152.471 3.92401Z" fill="#141517"/>
<path d="M93.8308 6.4865C93.809 2.68483 95.864 0 99.0618 0H110.485C113.548 0 115.531 2.73155 115.531 6.34891V22.3039H109.498V17.3661H99.8623V22.3039H93.8267L93.8308 6.4865ZM99.8663 13.0157H109.48V6.5085C109.506 5.85697 109.281 5.22064 108.851 4.73331C108.422 4.24597 107.822 3.94553 107.177 3.89516H102.28C101.646 3.92562 101.046 4.19462 100.599 4.64911C100.152 5.10359 99.8902 5.71061 99.865 6.35034L99.8663 13.0157Z" fill="#141517"/>
<path d="M119.558 22.3451H125.619V3.92548H131.599C132.248 3.94208 132.867 4.20564 133.331 4.66331C133.796 5.12099 134.071 5.7389 134.103 6.393V22.3479H140.081V6.55116C140.081 3.5101 138.708 -0.0275194 134.828 0.055006H119.555L119.558 22.3451Z" fill="#141517"/>
<path d="M61.4609 0.0563965V22.3451H67.4407V3.92545H72.6908V22.3561H78.7497V3.92545H81.4975C82.1341 3.95749 82.736 4.22833 83.1848 4.68485C83.6336 5.14137 83.8971 5.7506 83.9236 6.39297V22.3478H89.9851V6.39297C89.9851 3.18548 88.2873 0.0659667 84.8113 0.0659667L61.4609 0.0563965Z" fill="#141517"/>
<path d="M56.767 0.00683594H50.3687V22.3135H56.767V0.00683594Z" fill="#141517"/>
<path d="M24.6973 0.0549316V22.3437H30.7561V17.4045H39.6447V22.3409H45.7048V0.0549316H39.6447V13.0499H30.7561V0.0549316H24.6973Z" fill="#141517"/>
<path d="M20.7372 0.056363H5.74637C4.57871 0.0235985 3.43064 0.363642 2.46601 1.02807C1.50138 1.69251 0.76954 2.64737 0.374875 3.75626C-0.156103 5.86428 -0.128411 8.076 0.455278 10.1698C0.90295 11.1876 1.64404 12.0458 2.5822 12.6326C3.52036 13.2195 4.612 13.5077 5.71491 13.4599C6.76494 13.4599 12.4966 13.4599 13.5453 13.4599C14.6771 13.4599 15.4039 14.2851 15.4871 15.8462C15.5662 17.3262 15.0017 18.4774 13.5453 18.4774H0.696652V22.3437H15.7258C16.8128 22.418 17.8936 22.1275 18.7999 21.5175C19.7061 20.9074 20.3868 20.0121 20.7359 18.9711C21.6006 16.5797 21.6006 13.9573 20.7359 11.5659C20.2985 10.571 19.5668 9.73679 18.6411 9.17761C17.7154 8.61843 16.6409 8.36163 15.5648 8.4423H7.64723C6.51538 8.4423 5.87455 7.61703 5.87455 6.13982C5.87455 4.66262 6.5222 3.83735 7.64723 3.83735H20.7387L20.7372 0.056363Z" fill="#141517"/>
<path d="M165 29.8096H0V33.5397H165V29.8096Z" fill="#141517"/>
<path d="M165 33.5397H0V37.2684H165V33.5397Z" fill="#141517"/>
<path d="M165 37.2698H0V40.9999H165V37.2698Z" fill="#141517"/>
</g>
<defs>
<clipPath id="clip0_5561_3278">
<rect width="165" height="41" fill="white"/>
</clipPath>
</defs>
</svg>
