<svg xmlns="http://www.w3.org/2000/svg" width="24" height="24" viewBox="0 0 24 24" fill="none" aria-hidden="true" focusable="false">
  <path d="M2.63636 5C2.28491 5 2 5.28491 2 5.63636C2 5.98782 2.28491 6.27273 2.63636 6.27273H13.1328C13.5427 6.27273 13.875 6.60502 13.875 7.01491V15.8182H10.0273C9.74902 14.7244 8.78223 13.9091 7.625 13.9091C6.46777 13.9091 5.50098 14.7244 5.22266 15.8182C4.82354 15.8182 4.5 15.4946 4.5 15.0955V12.6364H3.25V15.1183C3.25 16.2077 4.13319 17.0909 5.22266 17.0909C5.50098 18.1847 6.46777 19 7.625 19C8.78223 19 9.74902 18.1847 10.0273 17.0909H15.2227C15.501 18.1847 16.4678 19 17.625 19C18.7822 19 19.749 18.1847 20.0273 17.0909C21.1168 17.0909 22 16.2077 22 15.1183V11.9006L21.9609 11.8011L21.1667 9.24242C20.8119 8.22618 19.8532 7.54545 18.7768 7.54545H15.125V7.1875C15.125 5.97938 14.1456 5 12.9375 5H2.63636ZM3.26136 7.54545C2.90991 7.54545 2.625 7.83036 2.625 8.18182C2.625 8.53327 2.90991 8.81818 3.26136 8.81818H7.61364C7.96509 8.81818 8.25 8.53327 8.25 8.18182C8.25 7.83036 7.96509 7.54545 7.61364 7.54545H3.26136ZM15.125 8.81818H18.9523C19.3841 8.81818 19.767 9.09527 19.9021 9.50534L20.75 12.0795V15.0955C20.75 15.4946 20.4265 15.8182 20.0273 15.8182C19.749 14.7244 18.7822 13.9091 17.625 13.9091C16.4678 13.9091 15.501 14.7244 15.2227 15.8182H15.125V8.81818ZM3.88636 10.0909C3.53491 10.0909 3.25 10.3758 3.25 10.7273C3.25 11.0787 3.53491 11.3636 3.88636 11.3636H6.36364C6.71509 11.3636 7 11.0787 7 10.7273C7 10.3758 6.71509 10.0909 6.36364 10.0909H3.88636ZM7.625 15.1818C8.32324 15.1818 8.875 15.7436 8.875 16.4545C8.875 17.1655 8.32324 17.7273 7.625 17.7273C6.92676 17.7273 6.375 17.1655 6.375 16.4545C6.375 15.7436 6.92676 15.1818 7.625 15.1818ZM17.625 15.1818C18.3232 15.1818 18.875 15.7436 18.875 16.4545C18.875 17.1655 18.3232 17.7273 17.625 17.7273C16.9268 17.7273 16.375 17.1655 16.375 16.4545C16.375 15.7436 16.9268 15.1818 17.625 15.1818Z" fill="currentColor"/>
</svg>
