<svg xmlns="http://www.w3.org/2000/svg" width="20" height="20" viewBox="0 0 20 20" fill="none" aria-hidden="true">
  <path d="M11.7891 0C7.65527 0 4.28906 3.36621 4.28906 7.5C4.28906 9.2959 4.91895 10.9424 5.97656 12.2344L0 18.2109L1.07812 19.2891L7.05469 13.3125C8.34668 14.3701 9.99316 15 11.7891 15C15.9229 15 19.2891 11.6338 19.2891 7.5C19.2891 3.36621 15.9229 0 11.7891 0ZM11.7891 1.5C15.1113 1.5 17.7891 4.17773 17.7891 7.5C17.7891 10.8223 15.1113 13.5 11.7891 13.5C8.4668 13.5 5.78906 10.8223 5.78906 7.5C5.78906 4.17773 8.4668 1.5 11.7891 1.5Z" fill="currentColor"/>
</svg>
