<svg xmlns="http://www.w3.org/2000/svg" width="19" height="20" viewBox="0 0 19 20" fill="none" aria-hidden="true" focusable="false">
  <path d="M9.11719 0C8.64844 0 8.18262 0.158204 7.78125 0.445312L6.53906 1.3125L5.10938 1.5H5.08594L5.0625 1.52344C4.10742 1.7373 3.35449 2.49023 3.14062 3.44531L3.11719 3.46875V3.49219L2.92969 4.94531L2.0625 6.07031L2.03906 6.09375V6.11719C1.51465 6.95508 1.49121 8.03613 2.0625 8.83594L2.95312 10.0781L3.1875 11.3672L0.773438 15.0469L0 16.1953H3.58594L4.45312 18.2109L4.99219 19.5L5.76562 18.3281L8.13281 14.7656C8.76855 15.0264 9.48633 15.0498 10.1016 14.7656L12.4688 18.3281L13.2422 19.5L13.7812 18.2109L14.6484 16.1953H18.2344L17.4609 15.0469L15.1172 11.4844L15.3047 10.0781L16.1719 8.83594L16.1953 8.8125V8.78906C16.7197 7.95117 16.7432 6.89355 16.1719 6.09375L15.3047 4.85156L15.0234 3.44531H15.0469C15.0439 3.42773 15.0264 3.41602 15.0234 3.39844C14.8887 2.41699 14.1123 1.62012 13.125 1.5H13.1016L11.6953 1.3125L10.4531 0.445312C10.0518 0.158204 9.58594 0 9.11719 0ZM9.11719 1.52344C9.29004 1.52344 9.45996 1.57617 9.58594 1.66406L10.9219 2.625L11.0859 2.74219L11.2734 2.76562L12.9141 3H12.9375C13.2744 3.03809 13.5088 3.27246 13.5469 3.60938V3.65625L13.8516 5.32031L13.875 5.48438L13.9922 5.625L14.9531 6.96094C15.1318 7.20996 15.1553 7.63184 14.9297 7.99219L13.875 9.46875L13.8516 9.65625L13.6172 11.2969V11.3203C13.6025 11.4434 13.5615 11.5576 13.5 11.6484L13.4531 11.6719V11.6953C13.3447 11.8242 13.1953 11.9092 13.0078 11.9297H12.9609L11.25 12.2344L11.0625 12.2578L10.9219 12.375L9.58594 13.3359C9.33691 13.5146 8.8916 13.5381 8.53125 13.3125L7.3125 12.375L7.17188 12.2578L6.96094 12.2344L5.32031 12H5.29688C5.06543 11.9736 4.88672 11.8535 4.78125 11.6719C4.73438 11.5898 4.69922 11.4932 4.6875 11.3906V11.3438L4.38281 9.63281L4.35938 9.44531L4.24219 9.30469L3.28125 7.96875C3.10254 7.71973 3.0791 7.27441 3.30469 6.91406L4.24219 5.69531L4.35938 5.55469L4.38281 5.34375L4.59375 3.77344C4.59668 3.76172 4.61426 3.76172 4.61719 3.75C4.71094 3.38379 5.00098 3.09375 5.36719 3C5.37891 2.99707 5.37891 2.97949 5.39062 2.97656L6.96094 2.76562L7.14844 2.74219L7.3125 2.625L8.64844 1.66406C8.77441 1.57617 8.94434 1.52344 9.11719 1.52344ZM14.2969 12.9375L15.4453 14.6953H13.6406L13.4531 15.1641L12.9375 16.3594L11.3438 13.9219L11.6953 13.6641L13.1719 13.4062V13.4297C13.1895 13.4268 13.2012 13.4092 13.2188 13.4062C13.623 13.3506 13.9893 13.1807 14.2969 12.9375ZM3.9375 12.9609C4.25684 13.248 4.66406 13.4473 5.10938 13.5C5.11816 13.5 5.12402 13.5 5.13281 13.5L6.5625 13.6875L6.89062 13.9453L5.29688 16.3594L4.78125 15.1641L4.59375 14.6953H2.78906L3.9375 12.9609Z" fill="currentColor"/>
</svg>
